<?xml version="1.0" encoding="UTF-8" standalone="no"?>
<!DOCTYPE svg PUBLIC "-//W3C//DTD SVG 1.1//EN"
 "http://www.w3.org/Graphics/SVG/1.1/DTD/svg11.dtd">
<!-- Generated by graphviz version 2.38.0 (20140413.2041)
 -->
<!-- Title: %3 Pages: 1 -->
<svg width="444pt" height="655pt"
 viewBox="0.00 0.00 443.62 655.00" xmlns="http://www.w3.org/2000/svg" xmlns:xlink="http://www.w3.org/1999/xlink">
<g id="graph0" class="graph" transform="scale(1 1) rotate(0) translate(4 651)">
<title>%3</title>
<polygon fill="white" stroke="none" points="-4,4 -4,-651 439.621,-651 439.621,4 -4,4"/>
<!-- timer -->
<g id="node1" class="node"><title>timer</title>
<polygon fill="none" stroke="black" points="352.831,-647 311.957,-629 352.831,-611 393.705,-629 352.831,-647"/>
<text text-anchor="middle" x="352.831" y="-624.8" font-family="Times,serif" font-size="14.00">timer</text>
</g>
<!-- timer&#45;&gt;timer -->
<g id="edge1" class="edge"><title>timer&#45;&gt;timer</title>
<path fill="none" stroke="black" d="M377.861,-636.144C394.868,-638.231 411.517,-635.85 411.517,-629 411.517,-623.542 400.945,-620.921 388.044,-621.137"/>
<polygon fill="black" stroke="black" points="387.59,-617.661 377.861,-621.856 388.083,-624.643 387.59,-617.661"/>
<text text-anchor="middle" x="423.569" y="-624.8" font-family="Times,serif" font-size="14.00">wait</text>
</g>
<!-- list -->
<g id="node2" class="node"><title>list</title>
<polygon fill="none" stroke="black" points="261.655,-561 184.007,-561 184.007,-525 261.655,-525 261.655,-561"/>
<text text-anchor="middle" x="222.831" y="-545.8" font-family="Times,serif" font-size="14.00">list healthy</text>
<text text-anchor="middle" x="222.831" y="-531.8" font-family="Times,serif" font-size="14.00"> &#160;&#160;&#160;CNodes</text>
</g>
<!-- timer&#45;&gt;list -->
<g id="edge2" class="edge"><title>timer&#45;&gt;list</title>
<path fill="none" stroke="black" d="M337.15,-617.868C317.613,-605.244 283.657,-583.303 257.813,-566.604"/>
<polygon fill="black" stroke="black" points="259.691,-563.65 249.392,-561.162 255.892,-569.529 259.691,-563.65"/>
<text text-anchor="middle" x="305.162" y="-581.8" font-family="Times,serif" font-size="14.00">run</text>
</g>
<!-- sizebig -->
<g id="node3" class="node"><title>sizebig</title>
<polygon fill="none" stroke="black" points="177.831,-475 49.3467,-439 177.831,-403 306.315,-439 177.831,-475"/>
<text text-anchor="middle" x="177.831" y="-441.8" font-family="Times,serif" font-size="14.00">is node count</text>
<text text-anchor="middle" x="177.831" y="-427.8" font-family="Times,serif" font-size="14.00"> &#160;&#160;&#160;&gt; min node count</text>
</g>
<!-- list&#45;&gt;sizebig -->
<g id="edge3" class="edge"><title>list&#45;&gt;sizebig</title>
<path fill="none" stroke="black" d="M215.197,-524.697C209.881,-512.647 202.561,-496.055 195.808,-480.748"/>
<polygon fill="black" stroke="black" points="198.938,-479.172 191.7,-471.436 192.534,-481.998 198.938,-479.172"/>
</g>
<!-- foreach -->
<g id="node4" class="node"><title>foreach</title>
<polygon fill="none" stroke="black" points="69.494,-335 0.16813,-335 0.16813,-299 69.494,-299 69.494,-335"/>
<text text-anchor="middle" x="34.8311" y="-319.8" font-family="Times,serif" font-size="14.00">for each</text>
<text text-anchor="middle" x="34.8311" y="-305.8" font-family="Times,serif" font-size="14.00"> &#160;&#160;&#160;CNode</text>
</g>
<!-- sizebig&#45;&gt;foreach -->
<g id="edge4" class="edge"><title>sizebig&#45;&gt;foreach</title>
<path fill="none" stroke="black" d="M146.449,-411.665C121.483,-390.715 86.8669,-361.666 62.8309,-341.496"/>
<polygon fill="black" stroke="black" points="65.0244,-338.768 55.1143,-335.021 60.5247,-344.13 65.0244,-338.768"/>
<text text-anchor="middle" x="115.886" y="-373.8" font-family="Times,serif" font-size="14.00">Y</text>
</g>
<!-- sizesmall -->
<g id="node5" class="node"><title>sizesmall</title>
<polygon fill="none" stroke="black" points="215.831,-353 87.3467,-317 215.831,-281 344.315,-317 215.831,-353"/>
<text text-anchor="middle" x="215.831" y="-319.8" font-family="Times,serif" font-size="14.00">is node count</text>
<text text-anchor="middle" x="215.831" y="-305.8" font-family="Times,serif" font-size="14.00"> &#160;&#160;&#160;&lt; min node count</text>
</g>
<!-- sizebig&#45;&gt;sizesmall -->
<g id="edge5" class="edge"><title>sizebig&#45;&gt;sizesmall</title>
<path fill="none" stroke="black" d="M188.014,-405.842C192.487,-391.719 197.797,-374.95 202.573,-359.869"/>
<polygon fill="black" stroke="black" points="205.937,-360.837 205.62,-350.247 199.264,-358.723 205.937,-360.837"/>
<text text-anchor="middle" x="203.886" y="-373.8" font-family="Times,serif" font-size="14.00">N</text>
</g>
<!-- active -->
<g id="node7" class="node"><title>active</title>
<polygon fill="none" stroke="black" points="159.831,-231 55.3402,-195 159.831,-159 264.322,-195 159.831,-231"/>
<text text-anchor="middle" x="159.831" y="-197.8" font-family="Times,serif" font-size="14.00">CNode recently</text>
<text text-anchor="middle" x="159.831" y="-183.8" font-family="Times,serif" font-size="14.00"> &#160;&#160;&#160;active</text>
</g>
<!-- foreach&#45;&gt;active -->
<g id="edge9" class="edge"><title>foreach&#45;&gt;active</title>
<path fill="none" stroke="black" d="M52.7405,-298.807C71.624,-280.679 101.839,-251.672 125.368,-229.085"/>
<polygon fill="black" stroke="black" points="127.959,-231.449 132.749,-221.999 123.111,-226.399 127.959,-231.449"/>
</g>
<!-- sizesmall&#45;&gt;timer -->
<g id="edge7" class="edge"><title>sizesmall&#45;&gt;timer</title>
<path fill="none" stroke="black" d="M255.628,-342.271C276.587,-357.17 300.789,-378.149 314.831,-403 333.799,-436.569 345.892,-549.174 350.598,-601.214"/>
<polygon fill="black" stroke="black" points="347.127,-601.695 351.49,-611.35 354.1,-601.081 347.127,-601.695"/>
<text text-anchor="middle" x="344.886" y="-495.8" font-family="Times,serif" font-size="14.00">N</text>
</g>
<!-- create -->
<g id="node6" class="node"><title>create</title>
<polygon fill="none" stroke="black" points="374.063,-213 297.599,-213 297.599,-177 374.063,-177 374.063,-213"/>
<text text-anchor="middle" x="335.831" y="-197.8" font-family="Times,serif" font-size="14.00">create new</text>
<text text-anchor="middle" x="335.831" y="-183.8" font-family="Times,serif" font-size="14.00"> &#160;&#160;&#160;CNode</text>
</g>
<!-- sizesmall&#45;&gt;create -->
<g id="edge6" class="edge"><title>sizesmall&#45;&gt;create</title>
<path fill="none" stroke="black" d="M243.361,-288.47C263.977,-267.854 291.912,-239.919 311.667,-220.164"/>
<polygon fill="black" stroke="black" points="314.209,-222.572 318.805,-213.026 309.259,-217.622 314.209,-222.572"/>
<text text-anchor="middle" x="284.886" y="-251.8" font-family="Times,serif" font-size="14.00">Y</text>
</g>
<!-- create&#45;&gt;timer -->
<g id="edge8" class="edge"><title>create&#45;&gt;timer</title>
<path fill="none" stroke="black" d="M344.363,-213.006C355.008,-235.837 371.831,-277.936 371.831,-316 371.831,-544 371.831,-544 371.831,-544 371.831,-564.36 366.455,-586.827 361.423,-603.399"/>
<polygon fill="black" stroke="black" points="357.95,-602.765 358.225,-613.357 364.615,-604.906 357.95,-602.765"/>
</g>
<!-- forend -->
<g id="node8" class="node"><title>forend</title>
<polygon fill="none" stroke="black" points="253.799,-36 191.863,-36 191.863,-0 253.799,-0 253.799,-36"/>
<text text-anchor="middle" x="222.831" y="-20.8" font-family="Times,serif" font-size="14.00">for each</text>
<text text-anchor="middle" x="222.831" y="-6.8" font-family="Times,serif" font-size="14.00"> &#160;&#160;&#160;end</text>
</g>
<!-- active&#45;&gt;forend -->
<g id="edge10" class="edge"><title>active&#45;&gt;forend</title>
<path fill="none" stroke="black" d="M156.161,-160.09C154.865,-134.927 156.168,-100.38 168.721,-73 173.949,-61.5955 182.695,-51.2503 191.647,-42.7372"/>
<polygon fill="black" stroke="black" points="194.021,-45.3091 199.142,-36.0341 189.355,-40.0912 194.021,-45.3091"/>
<text text-anchor="middle" x="173.886" y="-86.8" font-family="Times,serif" font-size="14.00">Y</text>
</g>
<!-- destroy -->
<g id="node9" class="node"><title>destroy</title>
<polygon fill="none" stroke="black" points="257.494,-109 188.168,-109 188.168,-73 257.494,-73 257.494,-109"/>
<text text-anchor="middle" x="222.831" y="-93.8" font-family="Times,serif" font-size="14.00">destroy</text>
<text text-anchor="middle" x="222.831" y="-79.8" font-family="Times,serif" font-size="14.00"> &#160;&#160;&#160;CNode</text>
</g>
<!-- active&#45;&gt;destroy -->
<g id="edge11" class="edge"><title>active&#45;&gt;destroy</title>
<path fill="none" stroke="black" d="M177.716,-165.044C186.847,-150.259 197.869,-132.415 206.733,-118.064"/>
<polygon fill="black" stroke="black" points="209.927,-119.553 212.204,-109.206 203.971,-115.874 209.927,-119.553"/>
<text text-anchor="middle" x="205.886" y="-129.8" font-family="Times,serif" font-size="14.00">N</text>
</g>
<!-- forend&#45;&gt;timer -->
<g id="edge12" class="edge"><title>forend&#45;&gt;timer</title>
<path fill="none" stroke="black" d="M253.71,-24.1459C306.824,-33.8796 409.831,-57.0098 409.831,-90 409.831,-544 409.831,-544 409.831,-544 409.831,-570.202 390.607,-594.301 374.487,-609.903"/>
<polygon fill="black" stroke="black" points="371.919,-607.509 366.921,-616.851 376.654,-612.665 371.919,-607.509"/>
</g>
<!-- destroy&#45;&gt;forend -->
<g id="edge13" class="edge"><title>destroy&#45;&gt;forend</title>
<path fill="none" stroke="black" d="M222.831,-72.8129C222.831,-64.7895 222.831,-55.0475 222.831,-46.0691"/>
<polygon fill="black" stroke="black" points="226.331,-46.0288 222.831,-36.0288 219.331,-46.0289 226.331,-46.0288"/>
</g>
</g>
</svg>
