<?xml version="1.0" encoding="UTF-8" standalone="no"?>
<!DOCTYPE svg PUBLIC "-//W3C//DTD SVG 1.1//EN"
 "http://www.w3.org/Graphics/SVG/1.1/DTD/svg11.dtd">
<!-- Generated by graphviz version 2.38.0 (20140413.2041)
 -->
<!-- Title: %3 Pages: 1 -->
<svg width="513pt" height="787pt"
 viewBox="0.00 0.00 512.61 787.00" xmlns="http://www.w3.org/2000/svg" xmlns:xlink="http://www.w3.org/1999/xlink">
<g id="graph0" class="graph" transform="scale(1 1) rotate(0) translate(4 783)">
<title>%3</title>
<polygon fill="white" stroke="none" points="-4,4 -4,-783 508.607,-783 508.607,4 -4,4"/>
<!-- waitjob -->
<g id="node1" class="node"><title>waitjob</title>
<polygon fill="none" stroke="black" points="389.759,-779 302.782,-743 389.759,-707 476.736,-743 389.759,-779"/>
<text text-anchor="middle" x="389.759" y="-745.8" font-family="Times,serif" font-size="14.00">is job</text>
<text text-anchor="middle" x="389.759" y="-731.8" font-family="Times,serif" font-size="14.00"> &#160;&#160;&#160;available?</text>
</g>
<!-- waitjob&#45;&gt;waitjob -->
<g id="edge1" class="edge"><title>waitjob&#45;&gt;waitjob</title>
<path fill="none" stroke="black" d="M449.769,-754.174C474.059,-754.84 494.497,-751.115 494.497,-743 494.497,-736.058 479.54,-732.328 460.01,-731.812"/>
<polygon fill="black" stroke="black" points="459.765,-728.312 449.769,-731.826 459.774,-735.312 459.765,-728.312"/>
<text text-anchor="middle" x="499.552" y="-738.8" font-family="Times,serif" font-size="14.00">N</text>
</g>
<!-- dynamo -->
<g id="node2" class="node"><title>dynamo</title>
<polygon fill="none" stroke="black" points="315.759,-657 236.8,-621 315.759,-585 394.718,-621 315.759,-657"/>
<text text-anchor="middle" x="315.759" y="-623.8" font-family="Times,serif" font-size="14.00">is known</text>
<text text-anchor="middle" x="315.759" y="-609.8" font-family="Times,serif" font-size="14.00"> &#160;&#160;&#160;number?</text>
</g>
<!-- waitjob&#45;&gt;dynamo -->
<g id="edge2" class="edge"><title>waitjob&#45;&gt;dynamo</title>
<path fill="none" stroke="black" d="M372.409,-713.865C362.223,-697.348 349.238,-676.291 338.271,-658.506"/>
<polygon fill="black" stroke="black" points="340.973,-656.219 332.745,-649.545 335.014,-659.893 340.973,-656.219"/>
<text text-anchor="middle" x="359.814" y="-677.8" font-family="Times,serif" font-size="14.00">Y</text>
</g>
<!-- costdyn -->
<g id="node3" class="node"><title>costdyn</title>
<polygon fill="none" stroke="black" points="375.018,-535 256.5,-535 256.5,-499 375.018,-499 375.018,-535"/>
<text text-anchor="middle" x="315.759" y="-519.8" font-family="Times,serif" font-size="14.00">set number cost to</text>
<text text-anchor="middle" x="315.759" y="-505.8" font-family="Times,serif" font-size="14.00"> &#160;&#160;&#160;known value</text>
</g>
<!-- dynamo&#45;&gt;costdyn -->
<g id="edge3" class="edge"><title>dynamo&#45;&gt;costdyn</title>
<path fill="none" stroke="black" d="M315.759,-584.897C315.759,-571.883 315.759,-557.333 315.759,-545.136"/>
<polygon fill="black" stroke="black" points="319.259,-545.119 315.759,-535.119 312.259,-545.119 319.259,-545.119"/>
<text text-anchor="middle" x="320.814" y="-555.8" font-family="Times,serif" font-size="14.00">Y</text>
</g>
<!-- costdef -->
<g id="node4" class="node"><title>costdef</title>
<polygon fill="none" stroke="black" points="239.018,-535 120.5,-535 120.5,-499 239.018,-499 239.018,-535"/>
<text text-anchor="middle" x="179.759" y="-519.8" font-family="Times,serif" font-size="14.00">set number cost to</text>
<text text-anchor="middle" x="179.759" y="-505.8" font-family="Times,serif" font-size="14.00"> &#160;&#160;&#160;infinity</text>
</g>
<!-- dynamo&#45;&gt;costdef -->
<g id="edge4" class="edge"><title>dynamo&#45;&gt;costdef</title>
<path fill="none" stroke="black" d="M286.583,-598.118C264.2,-581.331 233.377,-558.214 210.591,-541.124"/>
<polygon fill="black" stroke="black" points="212.69,-538.324 202.59,-535.124 208.49,-543.924 212.69,-538.324"/>
<text text-anchor="middle" x="248.814" y="-555.8" font-family="Times,serif" font-size="14.00">N</text>
</g>
<!-- find -->
<g id="node5" class="node"><title>find</title>
<polygon fill="none" stroke="black" points="251.693,-462 107.824,-462 107.824,-426 251.693,-426 251.693,-462"/>
<text text-anchor="middle" x="179.759" y="-446.8" font-family="Times,serif" font-size="14.00">find best CNode</text>
<text text-anchor="middle" x="179.759" y="-432.8" font-family="Times,serif" font-size="14.00"> &#160;&#160;&#160;that fits number cost</text>
</g>
<!-- costdyn&#45;&gt;find -->
<g id="edge5" class="edge"><title>costdyn&#45;&gt;find</title>
<path fill="none" stroke="black" d="M283.183,-498.994C264.731,-489.361 241.451,-477.207 221.652,-466.87"/>
<polygon fill="black" stroke="black" points="223.024,-463.639 212.54,-462.114 219.785,-469.844 223.024,-463.639"/>
</g>
<!-- costdef&#45;&gt;find -->
<g id="edge6" class="edge"><title>costdef&#45;&gt;find</title>
<path fill="none" stroke="black" d="M179.759,-498.813C179.759,-490.789 179.759,-481.047 179.759,-472.069"/>
<polygon fill="black" stroke="black" points="183.259,-472.029 179.759,-462.029 176.259,-472.029 183.259,-472.029"/>
</g>
<!-- found -->
<g id="node6" class="node"><title>found</title>
<polygon fill="none" stroke="black" points="179.759,-389 98.8896,-353 179.759,-317 260.628,-353 179.759,-389"/>
<text text-anchor="middle" x="179.759" y="-355.8" font-family="Times,serif" font-size="14.00">was CNode</text>
<text text-anchor="middle" x="179.759" y="-341.8" font-family="Times,serif" font-size="14.00"> &#160;&#160;&#160;found?</text>
</g>
<!-- find&#45;&gt;found -->
<g id="edge7" class="edge"><title>find&#45;&gt;found</title>
<path fill="none" stroke="black" d="M179.759,-425.84C179.759,-418.198 179.759,-408.801 179.759,-399.352"/>
<polygon fill="black" stroke="black" points="183.259,-399.159 179.759,-389.159 176.259,-399.159 183.259,-399.159"/>
</g>
<!-- proxy -->
<g id="node7" class="node"><title>proxy</title>
<polygon fill="none" stroke="black" points="399.738,-249 285.779,-249 285.779,-213 399.738,-213 399.738,-249"/>
<text text-anchor="middle" x="342.759" y="-226.8" font-family="Times,serif" font-size="14.00">request to CNode</text>
</g>
<!-- found&#45;&gt;proxy -->
<g id="edge8" class="edge"><title>found&#45;&gt;proxy</title>
<path fill="none" stroke="black" d="M209.656,-329.99C238.431,-308.806 281.787,-276.887 311.131,-255.285"/>
<polygon fill="black" stroke="black" points="313.405,-257.956 319.383,-249.209 309.255,-252.319 313.405,-257.956"/>
<text text-anchor="middle" x="271.814" y="-287.8" font-family="Times,serif" font-size="14.00">Y</text>
</g>
<!-- canec2 -->
<g id="node8" class="node"><title>canec2</title>
<polygon fill="none" stroke="black" points="164.759,-267 61.858,-231 164.759,-195 267.66,-231 164.759,-267"/>
<text text-anchor="middle" x="164.759" y="-233.8" font-family="Times,serif" font-size="14.00">can create</text>
<text text-anchor="middle" x="164.759" y="-219.8" font-family="Times,serif" font-size="14.00"> &#160;&#160;&#160;new CNode?</text>
</g>
<!-- found&#45;&gt;canec2 -->
<g id="edge9" class="edge"><title>found&#45;&gt;canec2</title>
<path fill="none" stroke="black" d="M175.58,-318.573C173.92,-305.292 171.988,-289.833 170.219,-275.685"/>
<polygon fill="black" stroke="black" points="173.68,-275.152 168.967,-265.664 166.734,-276.021 173.68,-275.152"/>
<text text-anchor="middle" x="177.814" y="-287.8" font-family="Times,serif" font-size="14.00">N</text>
</g>
<!-- notify -->
<g id="node11" class="node"><title>notify</title>
<polygon fill="none" stroke="black" points="464.472,-145 347.046,-145 347.046,-109 464.472,-109 464.472,-145"/>
<text text-anchor="middle" x="405.759" y="-129.8" font-family="Times,serif" font-size="14.00">notify capacity</text>
<text text-anchor="middle" x="405.759" y="-115.8" font-family="Times,serif" font-size="14.00"> &#160;&#160;&#160;+ job consumer</text>
</g>
<!-- proxy&#45;&gt;notify -->
<g id="edge15" class="edge"><title>proxy&#45;&gt;notify</title>
<path fill="none" stroke="black" d="M353.446,-212.697C363.462,-196.481 378.56,-172.036 389.965,-153.57"/>
<polygon fill="black" stroke="black" points="392.952,-155.395 395.23,-145.047 386.997,-151.716 392.952,-155.395"/>
</g>
<!-- ec2 -->
<g id="node9" class="node"><title>ec2</title>
<polygon fill="none" stroke="black" points="241.653,-145 107.865,-145 107.865,-109 241.653,-109 241.653,-145"/>
<text text-anchor="middle" x="174.759" y="-129.8" font-family="Times,serif" font-size="14.00">idempotently</text>
<text text-anchor="middle" x="174.759" y="-115.8" font-family="Times,serif" font-size="14.00"> &#160;&#160;&#160;create new CNode</text>
</g>
<!-- canec2&#45;&gt;ec2 -->
<g id="edge10" class="edge"><title>canec2&#45;&gt;ec2</title>
<path fill="none" stroke="black" d="M168.089,-196.035C169.381,-182.858 170.841,-167.965 172.065,-155.481"/>
<polygon fill="black" stroke="black" points="175.577,-155.526 173.069,-145.233 168.61,-154.843 175.577,-155.526"/>
<text text-anchor="middle" x="176.814" y="-165.8" font-family="Times,serif" font-size="14.00">Y</text>
</g>
<!-- waitcap -->
<g id="node10" class="node"><title>waitcap</title>
<polygon fill="none" stroke="black" points="79.7588,-72 0.240484,-36 79.7588,-7.10543e-15 159.277,-36 79.7588,-72"/>
<text text-anchor="middle" x="79.7588" y="-38.8" font-family="Times,serif" font-size="14.00">Wait on</text>
<text text-anchor="middle" x="79.7588" y="-24.8" font-family="Times,serif" font-size="14.00"> &#160;&#160;&#160;Capacity</text>
</g>
<!-- canec2&#45;&gt;waitcap -->
<g id="edge11" class="edge"><title>canec2&#45;&gt;waitcap</title>
<path fill="none" stroke="black" d="M134.604,-205.329C117.992,-189.873 98.7449,-168.473 88.6484,-145 80.1027,-125.132 77.4395,-101.329 77.0988,-81.1311"/>
<polygon fill="black" stroke="black" points="80.599,-80.9428 77.1135,-70.9377 73.599,-80.9326 80.599,-80.9428"/>
<text text-anchor="middle" x="93.814" y="-122.8" font-family="Times,serif" font-size="14.00">N</text>
</g>
<!-- ec2&#45;&gt;waitcap -->
<g id="edge12" class="edge"><title>ec2&#45;&gt;waitcap</title>
<path fill="none" stroke="black" d="M156.442,-108.84C144.045,-97.226 127.318,-81.5556 112.65,-67.8141"/>
<polygon fill="black" stroke="black" points="114.892,-65.1184 105.201,-60.8357 110.106,-70.2269 114.892,-65.1184"/>
</g>
<!-- waitcap&#45;&gt;find -->
<g id="edge14" class="edge"><title>waitcap&#45;&gt;find</title>
<path fill="none" stroke="black" d="M58.3748,-62.4936C46.3622,-79.4008 33.7588,-102.693 33.7588,-126 33.7588,-354 33.7588,-354 33.7588,-354 33.7588,-389.003 64.7333,-410.643 98.1484,-423.804"/>
<polygon fill="black" stroke="black" points="97.0209,-427.118 107.614,-427.295 99.4432,-420.551 97.0209,-427.118"/>
<text text-anchor="middle" x="38.814" y="-226.8" font-family="Times,serif" font-size="14.00">Y</text>
</g>
<!-- waitcap&#45;&gt;waitcap -->
<g id="edge13" class="edge"><title>waitcap&#45;&gt;waitcap</title>
<path fill="none" stroke="black" d="M137.482,-46.0947C159.394,-46.484 177.518,-43.1191 177.518,-36 177.518,-30.0488 164.853,-26.7211 147.898,-26.0168"/>
<polygon fill="black" stroke="black" points="147.519,-22.5127 137.482,-25.9053 147.444,-29.5123 147.519,-22.5127"/>
<text text-anchor="middle" x="182.573" y="-31.8" font-family="Times,serif" font-size="14.00">N</text>
</g>
<!-- notify&#45;&gt;waitjob -->
<g id="edge16" class="edge"><title>notify&#45;&gt;waitjob</title>
<path fill="none" stroke="black" d="M411.77,-145.083C418.284,-165.149 427.759,-199.566 427.759,-230 427.759,-622 427.759,-622 427.759,-622 427.759,-650.108 418.166,-680.265 408.62,-703.315"/>
<polygon fill="black" stroke="black" points="405.305,-702.164 404.559,-712.732 411.733,-704.935 405.305,-702.164"/>
</g>
</g>
</svg>
