<?xml version="1.0" encoding="UTF-8" standalone="no"?>
<!DOCTYPE svg PUBLIC "-//W3C//DTD SVG 1.1//EN"
 "http://www.w3.org/Graphics/SVG/1.1/DTD/svg11.dtd">
<!-- Generated by graphviz version 2.38.0 (20140413.2041)
 -->
<!-- Title: %3 Pages: 1 -->
<svg width="231pt" height="252pt"
 viewBox="0.00 0.00 231.41 252.00" xmlns="http://www.w3.org/2000/svg" xmlns:xlink="http://www.w3.org/1999/xlink">
<g id="graph0" class="graph" transform="scale(1 1) rotate(0) translate(4 248)">
<title>%3</title>
<polygon fill="white" stroke="none" points="-4,4 -4,-248 227.407,-248 227.407,4 -4,4"/>
<!-- client -->
<g id="node1" class="node"><title>client</title>
<ellipse fill="none" stroke="black" cx="97.6484" cy="-226" rx="30.0018" ry="18"/>
<text text-anchor="middle" x="97.6484" y="-221.8" font-family="Times,serif" font-size="14.00">client</text>
</g>
<!-- producer -->
<g id="node2" class="node"><title>producer</title>
<polygon fill="none" stroke="black" points="142.636,-158 52.6608,-158 52.6608,-122 142.636,-122 142.636,-158"/>
<text text-anchor="middle" x="97.6484" y="-135.8" font-family="Times,serif" font-size="14.00">Job Producer</text>
</g>
<!-- client&#45;&gt;producer -->
<g id="edge1" class="edge"><title>client&#45;&gt;producer</title>
<path fill="none" stroke="black" d="M97.6484,-207.595C97.6484,-196.257 97.6484,-181.227 97.6484,-168.315"/>
<polygon fill="black" stroke="black" points="101.149,-168.095 97.6484,-158.095 94.1485,-168.095 101.149,-168.095"/>
<text text-anchor="middle" x="136.856" y="-178.8" font-family="Times,serif" font-size="14.00">HTTP request</text>
</g>
<!-- wait -->
<g id="node3" class="node"><title>wait</title>
<polygon fill="none" stroke="black" points="97.6484,-72 -0.148663,-36 97.6484,-7.10543e-15 195.446,-36 97.6484,-72"/>
<text text-anchor="middle" x="97.6484" y="-38.8" font-family="Times,serif" font-size="14.00">Is Job</text>
<text text-anchor="middle" x="97.6484" y="-24.8" font-family="Times,serif" font-size="14.00"> &#160;&#160;&#160;Completed?</text>
</g>
<!-- producer&#45;&gt;wait -->
<g id="edge4" class="edge"><title>producer&#45;&gt;wait</title>
<path fill="none" stroke="black" d="M77.1121,-121.981C72.2487,-116.769 67.7203,-110.641 65.1104,-104 62.8343,-98.209 63.4189,-95.9879 65.1104,-90 66.7086,-84.3421 69.099,-78.6931 71.8724,-73.3054"/>
<polygon fill="black" stroke="black" points="74.9588,-74.9577 76.8291,-64.5293 68.8637,-71.5153 74.9588,-74.9577"/>
<text text-anchor="middle" x="83.9175" y="-92.8" font-family="Times,serif" font-size="14.00">Queue</text>
</g>
<!-- wait&#45;&gt;producer -->
<g id="edge3" class="edge"><title>wait&#45;&gt;producer</title>
<path fill="none" stroke="black" d="M104.595,-69.705C106.1,-80.6093 106.909,-92.8249 105.648,-104 105.361,-106.547 104.96,-109.179 104.488,-111.803"/>
<polygon fill="black" stroke="black" points="101.043,-111.18 102.416,-121.686 107.893,-112.617 101.043,-111.18"/>
<text text-anchor="middle" x="110.704" y="-92.8" font-family="Times,serif" font-size="14.00">Y</text>
</g>
<!-- wait&#45;&gt;wait -->
<g id="edge2" class="edge"><title>wait&#45;&gt;wait</title>
<path fill="none" stroke="black" d="M165.069,-47.2004C191.377,-47.7315 213.297,-43.998 213.297,-36 213.297,-29.0642 196.813,-25.3354 175.278,-24.8137"/>
<polygon fill="black" stroke="black" points="175.074,-21.3135 165.069,-24.7996 175.064,-28.3135 175.074,-21.3135"/>
<text text-anchor="middle" x="218.352" y="-31.8" font-family="Times,serif" font-size="14.00">N</text>
</g>
</g>
</svg>
