<?xml version="1.0" encoding="UTF-8" standalone="no"?>
<!DOCTYPE svg PUBLIC "-//W3C//DTD SVG 1.1//EN"
 "http://www.w3.org/Graphics/SVG/1.1/DTD/svg11.dtd">
<!-- Generated by graphviz version 2.38.0 (20140413.2041)
 -->
<!-- Title: %3 Pages: 1 -->
<svg width="799pt" height="302pt"
 viewBox="0.00 0.00 798.92 302.00" xmlns="http://www.w3.org/2000/svg" xmlns:xlink="http://www.w3.org/1999/xlink">
<g id="graph0" class="graph" transform="scale(1 1) rotate(0) translate(4 298)">
<title>%3</title>
<polygon fill="white" stroke="none" points="-4,4 -4,-298 794.915,-298 794.915,4 -4,4"/>
<!-- client -->
<g id="node1" class="node"><title>client</title>
<polygon fill="none" stroke="black" points="347.15,-294 258.733,-294 258.733,-258 347.15,-258 347.15,-294"/>
<text text-anchor="middle" x="302.941" y="-271.8" font-family="Times,serif" font-size="14.00">HTTP Client</text>
</g>
<!-- dns -->
<g id="node2" class="node"><title>dns</title>
<polygon fill="none" stroke="black" points="240.941,-208 186.941,-208 186.941,-172 240.941,-172 240.941,-208"/>
<text text-anchor="middle" x="213.941" y="-185.8" font-family="Times,serif" font-size="14.00">DNS</text>
</g>
<!-- client&#45;&gt;dns -->
<g id="edge1" class="edge"><title>client&#45;&gt;dns</title>
<path fill="none" stroke="black" d="M258.553,-274.73C231.657,-271.973 199.228,-263.484 181.559,-240 175.765,-232.3 178.662,-223.608 184.622,-215.705"/>
<polygon fill="black" stroke="black" points="187.337,-217.919 191.395,-208.132 182.12,-213.253 187.337,-217.919"/>
<text text-anchor="middle" x="213.633" y="-228.8" font-family="Times,serif" font-size="14.00">DNS query</text>
</g>
<!-- elb -->
<g id="node3" class="node"><title>elb</title>
<polygon fill="none" stroke="black" points="423.811,-208 330.072,-208 330.072,-172 423.811,-172 423.811,-208"/>
<text text-anchor="middle" x="376.941" y="-185.8" font-family="Times,serif" font-size="14.00">Amazon ELB</text>
</g>
<!-- client&#45;&gt;elb -->
<g id="edge2" class="edge"><title>client&#45;&gt;elb</title>
<path fill="none" stroke="black" d="M314.995,-257.678C321.956,-248.047 331.086,-236.02 340.052,-226 343.267,-222.406 346.79,-218.753 350.343,-215.228"/>
<polygon fill="black" stroke="black" points="352.823,-217.699 357.588,-208.236 347.962,-212.662 352.823,-217.699"/>
<text text-anchor="middle" x="367.386" y="-228.8" font-family="Times,serif" font-size="14.00">HTTP:80</text>
</g>
<!-- dns&#45;&gt;client -->
<g id="edge3" class="edge"><title>dns&#45;&gt;client</title>
<path fill="none" stroke="black" d="M232.054,-208.095C244.95,-220.267 262.475,-236.807 276.873,-250.396"/>
<polygon fill="black" stroke="black" points="274.826,-253.277 284.501,-257.595 279.63,-248.186 274.826,-253.277"/>
<text text-anchor="middle" x="288.24" y="-228.8" font-family="Times,serif" font-size="14.00">A record</text>
</g>
<!-- elb&#45;&gt;client -->
<g id="edge5" class="edge"><title>elb&#45;&gt;client</title>
<path fill="none" stroke="black" d="M389.792,-208.409C395.409,-218.296 399.409,-230.546 392.941,-240 384.482,-252.367 370.959,-260.365 356.94,-265.537"/>
<polygon fill="black" stroke="black" points="355.648,-262.276 347.211,-268.685 357.803,-268.936 355.648,-262.276"/>
<text text-anchor="middle" x="440.428" y="-228.8" font-family="Times,serif" font-size="14.00">HTTP response</text>
</g>
<!-- clb -->
<g id="node4" class="node"><title>clb</title>
<polygon fill="none" stroke="black" points="461.335,-122 292.547,-122 292.547,-86 461.335,-86 461.335,-122"/>
<text text-anchor="middle" x="376.941" y="-99.8" font-family="Times,serif" font-size="14.00">Cloudprime Load Balancer</text>
</g>
<!-- elb&#45;&gt;clb -->
<g id="edge4" class="edge"><title>elb&#45;&gt;clb</title>
<path fill="none" stroke="black" d="M376.941,-171.595C376.941,-160.257 376.941,-145.227 376.941,-132.315"/>
<polygon fill="black" stroke="black" points="380.442,-132.095 376.941,-122.095 373.442,-132.095 380.442,-132.095"/>
<text text-anchor="middle" x="410.386" y="-142.8" font-family="Times,serif" font-size="14.00">HTTP:8000</text>
</g>
<!-- dynamo -->
<g id="node5" class="node"><title>dynamo</title>
<polygon fill="none" stroke="black" points="159.824,-36 0.0585508,-36 0.0585508,-0 159.824,-0 159.824,-36"/>
<text text-anchor="middle" x="79.9414" y="-13.8" font-family="Times,serif" font-size="14.00">Amazon DynamoDB API</text>
</g>
<!-- clb&#45;&gt;dynamo -->
<g id="edge6" class="edge"><title>clb&#45;&gt;dynamo</title>
<path fill="none" stroke="black" d="M292.622,-100.194C196.711,-96.1151 51.0971,-86.8737 34.0518,-68 26.4085,-59.5368 31.3112,-50.3851 40.2863,-42.3074"/>
<polygon fill="black" stroke="black" points="42.4945,-45.0236 48.1953,-36.0932 38.1697,-39.5193 42.4945,-45.0236"/>
<text text-anchor="middle" x="61.3862" y="-56.8" font-family="Times,serif" font-size="14.00">HTTP:80</text>
</g>
<!-- ec2 -->
<g id="node6" class="node"><title>ec2</title>
<polygon fill="none" stroke="black" points="313.552,-36 196.331,-36 196.331,-0 313.552,-0 313.552,-36"/>
<text text-anchor="middle" x="254.941" y="-13.8" font-family="Times,serif" font-size="14.00">Amazon EC2 API</text>
</g>
<!-- clb&#45;&gt;ec2 -->
<g id="edge7" class="edge"><title>clb&#45;&gt;ec2</title>
<path fill="none" stroke="black" d="M292.614,-92.3806C263.981,-86.9121 236.991,-79.0178 228.266,-68 222.553,-60.7864 224.754,-52.1789 229.781,-44.2053"/>
<polygon fill="black" stroke="black" points="232.588,-46.2968 235.831,-36.2105 227.006,-42.073 232.588,-46.2968"/>
<text text-anchor="middle" x="262.779" y="-56.8" font-family="Times,serif" font-size="14.00">HTTPS:443</text>
</g>
<!-- node1 -->
<g id="node7" class="node"><title>node1</title>
<polygon fill="none" stroke="black" points="544.649,-36 417.234,-36 417.234,-0 544.649,-0 544.649,-36"/>
<text text-anchor="middle" x="480.941" y="-13.8" font-family="Times,serif" font-size="14.00">Cloudprime Node 1</text>
</g>
<!-- clb&#45;&gt;node1 -->
<g id="edge8" class="edge"><title>clb&#45;&gt;node1</title>
<path fill="none" stroke="black" d="M397.761,-85.9372C409.312,-76.4936 423.95,-64.5635 437.052,-54 441.718,-50.2379 446.675,-46.2635 451.514,-42.3958"/>
<polygon fill="black" stroke="black" points="453.841,-45.017 459.474,-36.0439 449.475,-39.5454 453.841,-45.017"/>
<text text-anchor="middle" x="471.386" y="-56.8" font-family="Times,serif" font-size="14.00">HTTP:8080</text>
</g>
<!-- nodeetc -->
<g id="node8" class="node"><title>nodeetc</title>
<polygon fill="none" stroke="black" points="746.149,-36 615.734,-36 615.734,-0 746.149,-0 746.149,-36"/>
<text text-anchor="middle" x="680.941" y="-13.8" font-family="Times,serif" font-size="14.00">Cloudprime Node ...</text>
</g>
<!-- clb&#45;&gt;nodeetc -->
<g id="edge9" class="edge"><title>clb&#45;&gt;nodeetc</title>
<path fill="none" stroke="black" d="M461.326,-97.332C503.603,-92.5955 555.01,-83.9116 598.941,-68 616.503,-61.6393 634.483,-51.3914 649.115,-41.9077"/>
<polygon fill="black" stroke="black" points="651.381,-44.6033 657.759,-36.1431 647.497,-38.7796 651.381,-44.6033"/>
<text text-anchor="middle" x="661.386" y="-56.8" font-family="Times,serif" font-size="14.00">HTTP:8080</text>
</g>
<!-- dynamo&#45;&gt;clb -->
<g id="edge12" class="edge"><title>dynamo&#45;&gt;clb</title>
<path fill="none" stroke="black" d="M91.4079,-36.3969C99.5985,-47.3311 111.626,-60.7042 125.669,-68 152.502,-81.941 222.836,-90.996 282.288,-96.3958"/>
<polygon fill="black" stroke="black" points="282.217,-99.9031 292.486,-97.2965 282.833,-92.9302 282.217,-99.9031"/>
<text text-anchor="middle" x="173.578" y="-56.8" font-family="Times,serif" font-size="14.00">HTTPS response</text>
</g>
<!-- ec2&#45;&gt;clb -->
<g id="edge13" class="edge"><title>ec2&#45;&gt;clb</title>
<path fill="none" stroke="black" d="M277.516,-36.1758C290.313,-45.7607 306.712,-57.7904 321.669,-68 327.731,-72.1381 334.255,-76.4174 340.621,-80.5029"/>
<polygon fill="black" stroke="black" points="338.83,-83.5112 349.146,-85.9224 342.585,-77.6038 338.83,-83.5112"/>
<text text-anchor="middle" x="369.578" y="-56.8" font-family="Times,serif" font-size="14.00">HTTPS response</text>
</g>
<!-- node1&#45;&gt;clb -->
<g id="edge10" class="edge"><title>node1&#45;&gt;clb</title>
<path fill="none" stroke="black" d="M497.908,-36.3232C505.48,-46.1809 511.23,-58.4309 503.941,-68 498.892,-74.6294 486.426,-80.3207 471.175,-85.0708"/>
<polygon fill="black" stroke="black" points="469.995,-81.7682 461.36,-87.9067 471.939,-88.4931 469.995,-81.7682"/>
<text text-anchor="middle" x="551.428" y="-56.8" font-family="Times,serif" font-size="14.00">HTTP response</text>
</g>
<!-- nodeetc&#45;&gt;clb -->
<g id="edge11" class="edge"><title>nodeetc&#45;&gt;clb</title>
<path fill="none" stroke="black" d="M695.143,-36.0846C701.895,-46.3463 706.93,-59.0957 698.941,-68 683.868,-84.8009 561.036,-94.295 471.546,-99.0389"/>
<polygon fill="black" stroke="black" points="471.162,-95.554 461.356,-99.5663 471.524,-102.545 471.162,-95.554"/>
<text text-anchor="middle" x="747.428" y="-56.8" font-family="Times,serif" font-size="14.00">HTTP response</text>
</g>
</g>
</svg>
