<?xml version="1.0" encoding="UTF-8" standalone="no"?>
<!DOCTYPE svg PUBLIC "-//W3C//DTD SVG 1.1//EN"
 "http://www.w3.org/Graphics/SVG/1.1/DTD/svg11.dtd">
<!-- Generated by graphviz version 2.38.0 (20140413.2041)
 -->
<!-- Title: %3 Pages: 1 -->
<svg width="547pt" height="116pt"
 viewBox="0.00 0.00 546.65 116.00" xmlns="http://www.w3.org/2000/svg" xmlns:xlink="http://www.w3.org/1999/xlink">
<g id="graph0" class="graph" transform="scale(1 1) rotate(0) translate(4 112)">
<title>%3</title>
<polygon fill="white" stroke="none" points="-4,4 -4,-112 542.648,-112 542.648,4 -4,4"/>
<!-- clb -->
<g id="node1" class="node"><title>clb</title>
<polygon fill="none" stroke="black" points="346.689,-108 177.901,-108 177.901,-72 346.689,-72 346.689,-108"/>
<text text-anchor="middle" x="262.295" y="-85.8" font-family="Times,serif" font-size="14.00">Cloudprime Load Balancer</text>
</g>
<!-- dynamo -->
<g id="node2" class="node"><title>dynamo</title>
<polygon fill="none" stroke="black" points="134.385,-36 0.204455,-36 0.204455,-0 134.385,-0 134.385,-36"/>
<text text-anchor="middle" x="67.2949" y="-13.8" font-family="Times,serif" font-size="14.00">Amazon DynamoDB</text>
</g>
<!-- clb&#45;&gt;dynamo -->
<g id="edge1" class="edge"><title>clb&#45;&gt;dynamo</title>
<path fill="none" stroke="black" d="M214.593,-71.8761C187.342,-62.094 152.998,-49.7653 124.329,-39.4738"/>
<polygon fill="black" stroke="black" points="125.437,-36.1528 114.842,-36.0683 123.072,-42.7412 125.437,-36.1528"/>
</g>
<!-- ec2 -->
<g id="node3" class="node"><title>ec2</title>
<polygon fill="none" stroke="black" points="244.112,-36 152.477,-36 152.477,-0 244.112,-0 244.112,-36"/>
<text text-anchor="middle" x="198.295" y="-13.8" font-family="Times,serif" font-size="14.00">Amazon EC2</text>
</g>
<!-- clb&#45;&gt;ec2 -->
<g id="edge2" class="edge"><title>clb&#45;&gt;ec2</title>
<path fill="none" stroke="black" d="M246.475,-71.6966C238.724,-63.2198 229.256,-52.8636 220.77,-43.5826"/>
<polygon fill="black" stroke="black" points="223.264,-41.1229 213.933,-36.1043 218.098,-45.8464 223.264,-41.1229"/>
</g>
<!-- node1 -->
<g id="node4" class="node"><title>node1</title>
<polygon fill="none" stroke="black" points="390.002,-36 262.588,-36 262.588,-0 390.002,-0 390.002,-36"/>
<text text-anchor="middle" x="326.295" y="-13.8" font-family="Times,serif" font-size="14.00">Cloudprime Node 1</text>
</g>
<!-- clb&#45;&gt;node1 -->
<g id="edge3" class="edge"><title>clb&#45;&gt;node1</title>
<path fill="none" stroke="black" d="M278.115,-71.6966C285.865,-63.2198 295.334,-52.8636 303.819,-43.5826"/>
<polygon fill="black" stroke="black" points="306.492,-45.8464 310.657,-36.1043 301.326,-41.1229 306.492,-45.8464"/>
</g>
<!-- nodeetc -->
<g id="node5" class="node"><title>nodeetc</title>
<polygon fill="none" stroke="black" points="538.502,-36 408.088,-36 408.088,-0 538.502,-0 538.502,-36"/>
<text text-anchor="middle" x="473.295" y="-13.8" font-family="Times,serif" font-size="14.00">Cloudprime Node ...</text>
</g>
<!-- clb&#45;&gt;nodeetc -->
<g id="edge4" class="edge"><title>clb&#45;&gt;nodeetc</title>
<path fill="none" stroke="black" d="M313.642,-71.9656C343.251,-62.1425 380.669,-49.7291 411.836,-39.3891"/>
<polygon fill="black" stroke="black" points="413.329,-42.5816 421.718,-36.1108 411.125,-35.9377 413.329,-42.5816"/>
</g>
</g>
</svg>
